HIERARCHY
ROOT Hips
{
	OFFSET 0.00 0.00 0.00
	CHANNELS 6 Xposition Yposition Zposition Xrotation Yrotation Zrotation
	JOINT Spine
	{
		OFFSET 0.00000 1.75157 2.62736
		CHANNELS 3 Xrotation Yrotation Zrotation
		JOINT Spine1
		{
			OFFSET 0.00000 0.60831 3.44992
			CHANNELS 3 Xrotation Yrotation Zrotation
			JOINT Spine2
			{
				OFFSET 0.00000 0.30532 3.48981
				CHANNELS 3 Xrotation Yrotation Zrotation
				JOINT Spine3
				{
					OFFSET 0.00000 0.00000 3.50314
					CHANNELS 3 Xrotation Yrotation Zrotation
					JOINT Neck
					{
						OFFSET 0.00000 -1.31367 9.19575
						CHANNELS 3 Xrotation Yrotation Zrotation
						JOINT Head
						{
							OFFSET 0.00000 -0.83643 4.74364
							CHANNELS 3 Xrotation Yrotation Zrotation
							End Site
							{
								OFFSET 0.00000 0.00001 5.67071
							}
						}
					}
					JOINT RightShoulder
					{
						OFFSET -1.05974 -1.76624 5.72262
						CHANNELS 3 Xrotation Yrotation Zrotation
						JOINT RightArm
						{
							OFFSET -5.26340 0.00000 0.00000
							CHANNELS 3 Xrotation Yrotation Zrotation
							JOINT RightForeArm
							{
								OFFSET -10.14667 0.00000 0.00000
								CHANNELS 3 Xrotation Yrotation Zrotation
								JOINT RightHand
								{
									OFFSET -8.53343 0.00000 0.00000
									CHANNELS 3 Xrotation Yrotation Zrotation
									JOINT RightHandEnd
									{
										OFFSET -2.46135 0.00000 0.00000
										CHANNELS 3 Xrotation Yrotation Zrotation
										End Site
										{
											OFFSET -2.46135 0.00000 0.00000
										}
									}
									JOINT RightHandThumb1
									{
										OFFSET -0.98454 -1.64090 -0.65636
										CHANNELS 3 Yrotation Xrotation Zrotation
										End Site
										{
											OFFSET -2.37748 -0.63704 0.00000
										}
									}
								}
							}
						}
					}
					JOINT LeftShoulder
					{
						OFFSET 1.05974 -1.76624 5.72262
						CHANNELS 3 Xrotation Yrotation Zrotation
						JOINT LeftArm
						{
							OFFSET 5.26340 0.00000 0.00000
							CHANNELS 3 Xrotation Yrotation Zrotation
							JOINT LeftForeArm
							{
								OFFSET 10.14667 0.00000 0.00000
								CHANNELS 3 Xrotation Yrotation Zrotation
								JOINT LeftHand
								{
									OFFSET 8.53343 0.00000 0.00000
									CHANNELS 3 Xrotation Yrotation Zrotation
									JOINT LeftHandEnd
									{
										OFFSET 2.46135 0.00000 0.00000
										CHANNELS 3 Xrotation Yrotation Zrotation
										End Site
										{
											OFFSET 2.46135 0.00000 0.00000
										}
									}
									JOINT LeftHandThumb1
									{
										OFFSET 0.98454 -1.64090 -0.65636
										CHANNELS 3 Yrotation Xrotation Zrotation
										End Site
										{
											OFFSET 2.37748 -0.63704 0.00000
										}
									}
								}
							}
						}
					}
				}
			}
		}
	}
	JOINT RightUpLeg
	{
		OFFSET -3.14391 0.00000 -0.91845
		CHANNELS 3 Xrotation Yrotation Zrotation
		JOINT RightLeg
		{
			OFFSET 0.00000 0.00000 -14.43197
			CHANNELS 3 Xrotation Yrotation Zrotation
			JOINT RightFoot
			{
				OFFSET 0.00000 0.00000 -14.31693
				CHANNELS 3 Xrotation Yrotation Zrotation
				JOINT RightToeBase
				{
					OFFSET 0.00000 -4.51635 -1.64382
					CHANNELS 3 Xrotation Yrotation Zrotation
					End Site
					{
						OFFSET 0.00000 -2.54339 -0.00000
					}
				}
			}
		}
	}
	JOINT LeftUpLeg
	{
		OFFSET 3.14391 0.00000 -0.91845
		CHANNELS 3 Xrotation Yrotation Zrotation
		JOINT LeftLeg
		{
			OFFSET 0.00000 0.00000 -14.43197
			CHANNELS 3 Xrotation Yrotation Zrotation
			JOINT LeftFoot
			{
				OFFSET 0.00000 0.00000 -14.31693
				CHANNELS 3 Xrotation Yrotation Zrotation
				JOINT LeftToeBase
				{
					OFFSET 0.00000 -4.51635 -1.64382
					CHANNELS 3 Xrotation Yrotation Zrotation
					End Site
					{
						OFFSET 0.00000 -2.54339 -0.00000
					}
				}
			}
		}
	}
}
MOTION
Frames: 9
Frame Time: 0.008342
 8.9287 -16.1021 31.0684 1.2731 2.2201 -82.2283 0.4464 -0.2794 -0.0302 -0.0328 -0.7992 -0.0441 2.9393 -1.2178 0.5533 0.3871 0.1416 0.4143 -10.7888 1.4720 -3.3784 0.2004 -3.0962 -5.6210 8.5053 -10.4777 14.6494 17.6341 -36.9535 59.4530 -0.0000 0.0001 83.9177 77.9298 6.9837 -32.5657 0.0000 -0.0000 -0.0000 -0.0000 -0.0000 -0.0000 1.0632 6.9141 -11.5008 -1.6337 28.3308 -2.8839 -0.0001 -0.0001 -103.2825 59.7887 -26.8653 7.6658 0.0000 0.0000 0.0000 -0.0000 0.0000 -0.0000 -18.3349 -0.4555 -12.2244 21.5122 0.0000 0.0000 -4.1070 -3.0254 -5.6152 -2.6114 0.0000 -0.0000 -6.3244 -4.6588 1.8258 53.2041 0.0000 0.0000 4.6346 9.2992 3.7170 -31.9451 0.0000 -0.0000
 9.1806 -16.1517 31.0490 1.1711 2.1696 -82.5043 0.4971 -0.1070 -0.0595 -0.0234 -0.7896 -0.0529 3.0038 -1.3132 0.4808 0.4086 0.1129 0.4337 -10.8569 1.3208 -3.2870 0.1299 -2.9681 -5.3767 8.3324 -10.6285 14.8505 18.1451 -36.6733 60.0415 -0.0000 0.0001 82.0147 78.3473 7.2173 -33.2210 0.0000 0.0000 0.0000 0.0000 -0.0000 0.0000 1.1168 6.9641 -11.5437 -1.0670 28.2331 -3.2769 -0.0001 -0.0001 -102.7324 60.2210 -27.3160 7.7886 0.0000 0.0000 0.0000 0.0000 -0.0000 0.0000 -18.7245 -0.2741 -11.9263 21.2199 0.0000 0.0000 -3.5507 -3.5811 -5.6159 -4.1084 0.0000 -0.0000 -4.9408 -4.4667 1.7924 51.2524 0.0000 0.0000 3.5660 9.2226 2.8965 -32.6213 0.0000 -0.0000
 9.4374 -16.2084 31.0318 1.0164 2.1164 -82.7736 0.5593 0.0956 -0.0876 -0.0051 -0.7655 -0.0583 3.0698 -1.3976 0.4009 0.4307 0.0871 0.4454 -10.9456 1.1432 -3.2012 0.0615 -2.8364 -5.1234 8.1908 -10.8005 15.0334 18.5675 -36.3557 60.5294 -0.0000 0.0001 80.1604 78.6771 7.4677 -33.8554 0.0000 -0.0000 0.0000 -0.0000 -0.0000 -0.0000 1.1807 7.0276 -11.5845 -0.4572 28.1789 -3.7331 -0.0001 -0.0001 -102.1972 60.7279 -27.7197 7.9896 0.0000 -0.0000 -0.0000 0.0000 -0.0000 0.0000 -19.1050 -0.0243 -11.6350 20.9206 0.0000 0.0000 -3.0156 -4.2454 -5.5891 -5.9092 0.0000 -0.0000 -3.5814 -4.1335 1.7592 49.1276 0.0000 0.0000 2.1239 9.1607 2.3660 -32.8251 0.0000 -0.0000
 9.6988 -16.2721 31.0174 0.8086 2.0612 -83.0375 0.6353 0.3252 -0.1100 0.0217 -0.7232 -0.0618 3.1356 -1.4692 0.3091 0.4520 0.0618 0.4562 -11.0564 0.9419 -3.1233 0.0006 -2.7024 -4.8639 8.0880 -10.9807 15.1936 18.9002 -36.0079 60.9172 -0.0000 0.0001 78.3744 78.9252 7.7274 -34.4582 0.0000 -0.0000 -0.0000 -0.0000 0.0000 -0.0000 1.2592 7.1005 -11.6282 0.1883 28.1745 -4.2512 -0.0001 -0.0001 -101.6749 61.2959 -28.0693 8.2678 -0.0000 0.0000 0.0000 -0.0000 -0.0000 -0.0000 -19.4694 0.2943 -11.3607 20.6016 0.0000 0.0000 -2.5136 -5.0133 -5.5107 -7.9945 0.0000 -0.0000 -2.2606 -3.6607 1.7354 46.8567 0.0000 0.0000 0.3871 9.1009 2.1700 -32.4780 0.0000 -0.0000
 9.9652 -16.3422 31.0064 0.5557 1.9935 -83.2921 0.7166 0.5733 -0.1294 0.0555 -0.6686 -0.0630 3.1994 -1.5187 0.2229 0.4708 0.0433 0.4478 -11.1908 0.7087 -3.0574 -0.0483 -2.5656 -4.5979 8.0272 -11.1777 15.3269 19.1449 -35.6215 61.2038 -0.0000 0.0001 76.6705 79.1028 8.0048 -35.0118 -0.0000 -0.0000 0.0000 0.0000 0.0000 0.0000 1.3521 7.1720 -11.6693 0.8716 28.2216 -4.8412 -0.0001 -0.0001 -101.1610 61.9074 -28.3562 8.6189 0.0000 -0.0000 -0.0000 -0.0000 -0.0000 0.0000 -19.8228 0.6751 -11.1175 20.2459 0.0000 0.0000 -2.0539 -5.8728 -5.3624 -10.3245 0.0000 -0.0000 -1.0105 -3.0624 1.7302 44.4791 0.0000 0.0000 -1.5463 9.0030 2.3214 -31.5633 0.0000 -0.0000
 10.2350 -16.4173 30.9992 0.2678 1.9284 -83.5362 0.8177 0.8326 -0.1389 0.0965 -0.5976 -0.0682 3.2551 -1.5511 0.1241 0.4881 0.0226 0.4456 -11.3471 0.4555 -3.0070 -0.0829 -2.4309 -4.3310 8.0031 -11.3724 15.4170 19.3166 -35.2092 61.3976 -0.0000 0.0001 75.0652 79.2338 8.2856 -35.5096 0.0000 -0.0000 -0.0000 -0.0000 -0.0000 -0.0000 1.4523 7.2377 -11.7172 1.5976 28.3320 -5.4999 -0.0001 -0.0001 -100.6527 62.5345 -28.5729 9.0186 0.0000 -0.0000 -0.0000 0.0000 -0.0000 -0.0000 -20.1393 1.1024 -10.9164 19.8324 0.0000 0.0000 -1.6466 -6.8026 -5.1332 -12.8343 0.0000 -0.0000 0.1730 -2.3659 1.7663 42.0285 0.0000 0.0000 -3.5655 8.8109 2.7904 -30.1277 0.0000 -0.0000
 10.5094 -16.4963 30.9954 -0.0426 1.8385 -83.7624 0.9121 1.0921 -0.1491 0.1478 -0.5153 -0.0689 3.2979 -1.5621 0.0311 0.4999 0.0109 0.4230 -11.5213 0.1715 -2.9721 -0.1030 -2.2949 -4.0644 8.0219 -11.5690 15.4701 19.4131 -34.7712 61.4944 -0.0000 0.0001 73.5711 79.3322 8.5752 -35.9353 0.0000 -0.0000 0.0000 -0.0000 -0.0000 0.0000 1.5650 7.2854 -11.7646 2.3611 28.5029 -6.2341 -0.0001 -0.0001 -100.1445 63.1660 -28.7112 9.4582 -0.0000 0.0000 -0.0000 0.0000 -0.0000 -0.0000 -20.4465 1.5673 -10.7758 19.3502 0.0000 0.0000 -1.2963 -7.7741 -4.8167 -15.4340 0.0000 -0.0000 1.2357 -1.5949 1.8562 39.5625 0.0000 0.0000 -5.5653 8.4727 3.5213 -28.2679 0.0000 -0.0000
 10.7869 -16.5782 30.9950 -0.3713 1.7346 -83.9694 1.0168 1.3508 -0.1532 0.1979 -0.4187 -0.0636 3.3260 -1.5544 -0.0850 0.5088 -0.0026 0.4081 -11.7109 -0.1275 -2.9578 -0.1079 -2.1651 -3.8018 8.0567 -11.7497 15.4810 19.4602 -34.3376 61.4821 -0.0000 0.0001 72.2150 79.4213 8.8571 -36.2704 0.0000 -0.0000 0.0000 0.0000 -0.0000 0.0000 1.6792 7.3121 -11.8241 3.1689 28.7410 -7.0359 -0.0001 -0.0001 -99.6355 63.7798 -28.7650 9.9141 0.0000 0.0000 -0.0000 0.0000 0.0000 0.0000 -20.7291 2.0603 -10.7016 18.7928 0.0000 0.0000 -1.0115 -8.7535 -4.4206 -18.0120 0.0000 -0.0000 2.1829 -0.7727 2.0230 37.1169 0.0000 0.0000 -7.4463 7.9564 4.4295 -26.1110 0.0000 -0.0000
 11.0674 -16.6600 30.9970 -0.6904 1.6005 -84.1486 1.1039 1.5954 -0.1579 0.2634 -0.3250 -0.0671 3.3315 -1.5286 -0.1783 0.5090 -0.0033 0.3655 -11.9062 -0.4521 -2.9649 -0.1017 -2.0390 -3.5438 8.1331 -11.9247 15.4402 19.4446 -33.8819 61.3854 -0.0000 0.0001 70.9871 79.5122 9.1484 -36.5238 0.0000 0.0000 0.0000 0.0000 0.0000 0.0000 1.7907 7.3089 -11.8941 4.0212 29.0369 -7.8974 -0.0001 -0.0001 -99.1283 64.3571 -28.7205 10.3650 -0.0000 0.0000 -0.0000 0.0000 0.0000 -0.0000 -21.0003 2.5498 -10.7082 18.1500 0.0000 0.0000 -0.7896 -9.7013 -3.9700 -20.4439 0.0000 -0.0000 2.9772 0.0486 2.2906 34.7535 0.0000 0.0000 -9.1423 7.2585 5.4054 -23.7910 0.0000 -0.0000
